<?xml version="1.0" encoding="UTF-8"?><svg id="logo" xmlns="http://www.w3.org/2000/svg" viewBox="0 0 627.9 162.51"><path d="M0,140.93l18.41-10.02c1.36,4.84,3.89,8.52,7.57,11.05s8.42,3.78,14.22,3.78c4.98,0,8.88-1.14,11.71-3.43s4.24-5.4,4.24-9.36c0-5.25-5.05-9.75-15.14-13.5-3.41-1.23-6.03-2.25-7.87-3.07-10.36-4.3-17.61-8.66-21.73-13.09s-6.19-9.82-6.19-16.16c0-8.66,3.39-15.68,10.18-21.07,6.78-5.39,15.77-8.08,26.95-8.08,7.5,0,13.93,1.38,19.28,4.14,5.35,2.76,9.26,6.7,11.71,11.81l-15.75,10.84c-1.16-3.07-3.19-5.51-6.09-7.31s-6.26-2.71-10.07-2.71c-4.23,0-7.62,1.01-10.18,3.02s-3.84,4.69-3.84,8.03c0,5.05,5.73,9.65,17.18,13.81,3.61,1.3,6.41,2.35,8.39,3.17,8.93,3.55,15.32,7.55,19.18,12.02s5.78,10.04,5.78,16.72c0,9.68-3.51,17.27-10.53,22.76s-16.7,8.23-29.04,8.23c-9.48,0-17.35-1.77-23.62-5.32S3.57,148.22,.02,140.93h-.02Z"/><path d="M225.06,158.52h-22.19v-12.58c-3.95,5.59-8.57,9.75-13.86,12.48s-11.33,4.09-18.15,4.09c-13.7,0-24.49-4.69-32.37-14.06s-11.81-22.21-11.81-38.5,4.02-27.97,12.07-37.48,18.54-14.27,31.5-14.27c7.91,0,14.68,1.65,20.3,4.96,5.62,3.31,9.73,8.06,12.32,14.27v-15.85h22.19v96.95h0Zm-21.58-48.79c0-10.02-2.34-17.83-7.01-23.42s-11.2-8.39-19.58-8.39-14.98,2.88-19.79,8.64-7.21,13.76-7.21,23.98,2.32,18.24,6.95,23.83,11.18,8.39,19.64,8.39c7.98,0,14.47-3.03,19.48-9.1s7.52-14.05,7.52-23.93Z"/><path d="M290.28,158.52V0h22.19V158.52h-22.19Z"/><path d="M370.53,110.14c0-7.09,1.35-13.79,4.04-20.1s6.56-11.91,11.61-16.82c4.98-4.84,10.7-8.56,17.18-11.15s13.26-3.89,20.35-3.89,14.16,1.3,20.61,3.89c6.45,2.59,12.22,6.41,17.33,11.45,5.11,4.98,9,10.6,11.66,16.87s3.99,12.85,3.99,19.74-1.31,13.87-3.94,20.15-6.46,11.83-11.51,16.67c-5.32,5.11-11.22,8.98-17.69,11.61s-13.3,3.94-20.45,3.94-13.77-1.31-20.25-3.94-12.24-6.43-17.28-11.4c-5.11-5.05-9-10.7-11.66-16.98s-3.99-12.95-3.99-20.04h0Zm83.35,.2c0-9-2.9-16.62-8.69-22.86-5.8-6.24-12.89-9.36-21.27-9.36s-15.39,3.12-21.22,9.36-8.74,13.86-8.74,22.86,2.91,16.62,8.74,22.86c5.83,6.24,12.9,9.36,21.22,9.36s15.39-3.12,21.22-9.36c5.83-6.24,8.74-13.86,8.74-22.86Z"/><path d="M534.33,158.52V61.57h20.86v15.85c4.43-6.68,9.65-11.56,15.65-14.62s13.3-4.6,21.89-4.6c7.23,0,13.38,1.14,18.46,3.43s9.05,5.68,11.91,10.18c1.7,2.66,2.93,5.76,3.68,9.31s1.12,9.75,1.12,18.61v58.81h-22.4v-49.81c0-12.75-1.55-21.22-4.65-25.41s-8.61-6.29-16.52-6.29c-5.18,0-9.8,.95-13.86,2.86s-7.24,4.6-9.56,8.08c-1.64,2.32-2.78,5.3-3.43,8.95s-.97,9.46-.97,17.44v44.18h-22.19v-.02Z"/></svg>